<svg width="20px" height="20px" viewBox="0 0 103 103" fill="none" xmlns="http://www.w3.org/2000/svg">
<path opacity="0.5" d="M51.5 0C23.1019 0 0 23.1019 0 51.5C0 79.8981 23.1019 103 51.5 103C79.8981 103 103 79.8981 103 51.5C103 23.1019 79.8981 0 51.5 0ZM9.96774 51.5C9.96774 28.5975 28.5975 9.96774 51.5 9.96774C61.1587 9.96774 70.0334 13.3103 77.0972 18.859L18.859 77.0972C13.1001 69.8079 9.96758 60.7896 9.96774 51.5ZM51.5 93.0323C42.2104 93.0324 33.1921 89.8999 25.9028 84.141L84.141 25.9028C89.8999 33.1921 93.0324 42.2104 93.0323 51.5C93.0323 74.4025 74.4025 93.0323 51.5 93.0323Z" fill="#FF0F0F"/>
<path d="M78.6269 58.75C78.3473 58.7502 78.0709 58.6938 77.8168 58.5846C77.5627 58.4754 77.3369 58.3161 77.1548 58.1175C76.9727 57.919 76.8388 57.6859 76.7621 57.4344C76.6855 57.1828 76.6679 56.9187 76.7107 56.6602L80.3397 34.5912C80.8083 31.7504 80.614 28.8484 79.7702 26.0845C78.9264 23.3206 77.453 20.7603 75.4513 18.5796C73.4512 16.397 70.9698 14.6454 68.1775 13.4449C65.3852 12.2444 62.3482 11.6236 59.2752 11.625H43.7267C40.6535 11.6234 37.6163 12.2444 34.8239 13.4452C32.0316 14.646 29.5502 16.3982 27.5505 18.5814C25.5484 20.7619 24.0748 23.3221 23.2309 26.0861C22.3871 28.8501 22.1931 31.7522 22.6622 34.593L26.2912 56.662C26.33 56.8973 26.3189 57.1374 26.2586 57.3687C26.1982 57.6 26.0897 57.8179 25.9393 58.0099C25.7888 58.202 25.5995 58.3644 25.3819 58.488C25.1644 58.6115 24.9229 58.6938 24.6714 58.7301C24.1641 58.801 23.6473 58.6815 23.2336 58.3977C22.82 58.114 22.5429 57.6888 22.4627 57.2148L18.8318 35.1458C17.7119 28.3417 19.8199 21.4433 24.6094 16.2215C26.9721 13.6412 29.9041 11.5702 33.2039 10.1509C36.5037 8.73169 40.0929 7.99789 43.7248 8H59.2732C66.6318 8 73.5991 10.9961 78.3886 16.2197C80.755 18.7969 82.4967 21.8228 83.494 25.0896C84.4914 28.3564 84.7207 31.7864 84.1662 35.144L80.5373 57.213C80.4674 57.6404 80.2364 58.0302 79.8861 58.3121C79.5357 58.594 79.089 58.7493 78.6269 58.75Z" fill="black"/>
<path d="M28.25 95C27.7361 95 27.2433 94.809 26.88 94.4691C26.5166 94.1292 26.3125 93.6682 26.3125 93.1875V89.5625C26.3125 89.0818 26.5166 88.6208 26.88 88.2809C27.2433 87.941 27.7361 87.75 28.25 87.75C28.7639 87.75 29.2567 87.941 29.62 88.2809C29.9834 88.6208 30.1875 89.0818 30.1875 89.5625V93.1875C30.1875 93.6682 29.9834 94.1292 29.62 94.4691C29.2567 94.809 28.7639 95 28.25 95Z" fill="black"/>
<path d="M74.75 95C74.2361 95 73.7433 94.809 73.38 94.4691C73.0166 94.1292 72.8125 93.6682 72.8125 93.1875V89.5625C72.8125 89.0818 73.0166 88.6208 73.38 88.2809C73.7433 87.941 74.2361 87.75 74.75 87.75C75.2639 87.75 75.7567 87.941 76.12 88.2809C76.4834 88.6208 76.6875 89.0818 76.6875 89.5625V93.1875C76.6875 93.6682 76.4834 94.1292 76.12 94.4691C75.7567 94.809 75.2639 95 74.75 95Z" fill="black"/>
<path d="M76.6875 91.375H26.3125C18.8338 91.375 12.75 85.6819 12.75 78.6875V71.4375C12.75 70.3391 12.0486 69.3549 10.9656 68.9308C9.19708 68.2455 7.68598 67.0842 6.62391 65.5944C5.56184 64.1046 4.99665 62.3532 5.00001 60.5625C5.00001 55.5654 9.34583 51.5 14.6875 51.5C23.2338 51.5 30.1875 58.0051 30.1875 66V68.6481C33.6188 67.5007 40.2567 66 51.5 66C62.7433 66 69.3812 67.5007 72.8125 68.6481V66C72.8125 58.0051 79.7662 51.5 88.3125 51.5C93.6542 51.5 98 55.5654 98 60.5625C98.0039 62.3533 97.4389 64.1049 96.3768 65.5948C95.3146 67.0847 93.8033 68.2459 92.0344 68.9308C91.5056 69.137 91.0539 69.4852 90.7363 69.9313C90.4188 70.3774 90.2495 70.9015 90.25 71.4375V78.6875C90.25 85.6819 84.1663 91.375 76.6875 91.375ZM14.6875 55.125C11.4829 55.125 8.87501 57.5646 8.87501 60.5625C8.87501 62.7665 10.2797 64.7385 12.4555 65.5849C13.6919 66.0645 14.7483 66.8768 15.4906 67.9187C16.2329 68.9607 16.6277 70.1854 16.625 71.4375V78.6875C16.625 83.6846 20.9708 87.75 26.3125 87.75H76.6875C82.0292 87.75 86.375 83.6846 86.375 78.6875V71.4375C86.3728 70.1855 86.7679 68.961 87.5101 67.9192C88.2524 66.8773 89.3084 66.0649 90.5445 65.5849C91.606 65.1738 92.5131 64.4769 93.1506 63.5827C93.788 62.6885 94.1272 61.6373 94.125 60.5625C94.125 57.5646 91.5171 55.125 88.3125 55.125C81.9013 55.125 76.6875 60.0024 76.6875 66V74.8233L73.6747 72.9455C73.6379 72.9219 67.8971 69.625 51.5 69.625C35.1029 69.625 29.3621 72.9219 29.306 72.9564L26.33 74.7272L26.3125 66C26.3125 60.0024 21.0987 55.125 14.6875 55.125Z" fill="black"/>
<path d="M65.4385 34.8358L56.1159 33.6475L52.0969 25.3613C51.8663 24.8796 51.1416 24.8796 50.911 25.3613L46.8921 33.6475L37.5695 34.8358C37.0095 34.9 36.8118 35.5424 37.2072 35.9278L44.0261 42.2227L42.3132 51.2475C42.2143 51.7614 42.7744 52.1789 43.2685 51.922L51.504 47.5541L59.7395 51.922C60.2336 52.1789 60.7936 51.7614 60.6948 51.2475L58.9818 42.2227L65.8008 35.9278C66.1961 35.5424 65.9655 34.9 65.4385 34.8358ZM57.7959 41.5482C57.6312 41.7088 57.5653 41.9015 57.5983 42.1263L59.1465 50.1556L51.8334 46.2373C51.7346 46.1731 51.6358 46.1731 51.504 46.1731C51.4052 46.1731 51.2734 46.2052 51.1746 46.2373L43.8614 50.1556L45.4097 42.1263C45.4427 41.9015 45.3768 41.7088 45.2121 41.5482L39.1178 35.9278L47.4192 34.8679C47.6498 34.8358 47.8474 34.7073 47.9462 34.5146L51.504 27.1277L55.0947 34.4825C55.1935 34.6752 55.3911 34.8037 55.5888 34.8358L63.8902 35.9278L57.7959 41.5482Z" fill="black" stroke="black" stroke-width="2"/>
</svg>
